# xmcd
#
# Track frame offsets:
#	150
#	15969
#	44261
#	66015
#	85985
#	109050
#	137440
#	176811
#	216327
#	244446
#
# Disc length: 3635 seconds
#
# Revision: 1
# Processed by: cddbd v1.4PL0 Copyright (c) Steve Scherf et al.
# Submitted via: CDmax 2.0
#
DISCID=870e310a
DTITLE=Eric Clapton - Estadio River Of Tears (disc1)
DYEAR=2001
DGENRE=Blues
TTITLE0=Key to the Highway
TTITLE1=Reptile
TTITLE2=Got You on My Mind
TTITLE3=Tears in Heaven
TTITLE4=Bell Bottom Blues
TTITLE5=Change the World
TTITLE6=My Father's Eyes
TTITLE7=River of Tears
TTITLE8=Going Down Slow
TTITLE9=She's Gone
EXTD=Eric Clapton\t\tguitar, vocals\nNathan East\t\tbass, vocals\nAndy Fairwe
EXTD=ather Low\tguitar, vocals\nSteve Gadd\t\tdrums\nDavid Sancious\t\tkeyboa
EXTD=rds, vocals, guitar\nGreg Phillinganes\t\tkeyboards, vocals\n\nRecorde
EXTD=d live at River Plate Stadium, Buenos Aires, Argentina on October 6, 2001
EXTT0=
EXTT1=
EXTT2=
EXTT3=
EXTT4=
EXTT5=
EXTT6=
EXTT7=
EXTT8=
EXTT9=
PLAYORDER=
